<svg width="17" height="14" viewBox="0 0 17 14" fill="none" xmlns="http://www.w3.org/2000/svg">
<path d="M0.772727 0.981364L1.76182 0L14.6818 12.92L13.7005 13.9091L11.3205 11.5291C10.4318 11.8227 9.48909 11.9773 8.5 11.9773C4.63636 11.9773 1.33682 9.57409 0 6.18182C0.533182 4.82182 1.38318 3.62409 2.465 2.67364L0.772727 0.981364ZM8.5 3.86364C9.11482 3.86364 9.70446 4.10787 10.1392 4.54262C10.5739 4.97736 10.8182 5.567 10.8182 6.18182C10.8182 6.45227 10.7718 6.715 10.6868 6.95455L7.72727 3.995C7.96682 3.91 8.22955 3.86364 8.5 3.86364ZM8.5 0.386364C12.3636 0.386364 15.6632 2.78955 17 6.18182C16.3664 7.78909 15.2923 9.18 13.9091 10.1923L12.8118 9.08727C13.8627 8.36091 14.7282 7.37182 15.3155 6.18182C14.0405 3.58545 11.4055 1.93182 8.5 1.93182C7.65773 1.93182 6.83091 2.07091 6.05818 2.31818L4.86818 1.13591C5.98091 0.656818 7.20955 0.386364 8.5 0.386364ZM1.68455 6.18182C2.95955 8.77818 5.59455 10.4318 8.5 10.4318C9.03318 10.4318 9.55864 10.3777 10.0455 10.2695L8.28364 8.5C7.17864 8.38409 6.29773 7.50318 6.18182 6.39818L3.55455 3.76318C2.78955 4.42 2.14818 5.23909 1.68455 6.18182Z" fill="#BBBCBF"/>
</svg>
